<svg width="700" height="700" viewBox="0 0 700 700" fill="none" xmlns="http://www.w3.org/2000/svg">
<path fill-rule="evenodd" clip-rule="evenodd" d="M700 24C700 10.7452 689.255 0 676 0H24C10.7452 0 0 10.7452 0 24V676C0 689.255 10.7452 700 24 700H676C689.255 700 700 689.255 700 676V24ZM233.029 216.971C242.402 207.598 257.598 207.598 266.971 216.971L303.74 253.74C313.113 263.113 313.113 278.308 303.74 287.681L258.392 333.029C249.019 342.402 249.019 357.598 258.392 366.971L303.74 412.319C313.113 421.692 313.113 436.887 303.74 446.26L266.971 483.029C257.598 492.402 242.402 492.402 233.029 483.029L116.971 366.971C107.598 357.598 107.598 342.402 116.971 333.029L233.029 216.971ZM466.971 216.971C457.598 207.598 442.402 207.598 433.029 216.971L396.26 253.74C386.888 263.112 386.888 278.308 396.26 287.681L441.609 333.029C450.982 342.402 450.982 357.598 441.609 366.971L396.26 412.319C386.888 421.692 386.888 436.888 396.26 446.26L433.029 483.029C442.402 492.402 457.598 492.402 466.971 483.029L583.029 366.971C592.402 357.598 592.402 342.402 583.029 333.029L466.971 216.971Z" fill="url(#paint0_linear_2530_3)"/>
<defs>
<linearGradient id="paint0_linear_2530_3" x1="700" y1="0" x2="17" y2="700" gradientUnits="userSpaceOnUse">
<stop offset="0.23" stop-color="#B497F1"/>
<stop offset="0.5" stop-color="#D8CBF8"/>
<stop offset="0.551058" stop-color="#9578D2"/>
<stop offset="1" stop-color="#5125AB"/>
</linearGradient>
</defs>
</svg>
