<svg width="1920" height="1080" viewBox="0 0 1920 1080" fill="none" xmlns="http://www.w3.org/2000/svg">
<g clip-path="url(#clip0_2673_126)">
<rect width="1920" height="1080" fill="#212121"/>
<path d="M206.6 544.4C203.2 562 195.1 576.2 182.3 587C169.7 597.8 152.8 603.2 131.6 603.2C120.6 603.2 110.3 601.5 100.7 598.1C91.3 594.7 83.1 589.8 76.1 583.4C69.1 577 63.6 569.1 59.6 559.7C55.6 550.3 53.6 539.6 53.6 527.6V524C53.6 512 55.6 501.2 59.6 491.6C63.6 482 69.1 473.8 76.1 467C83.3 460.2 91.6 455 101 451.4C110.6 447.8 120.8 446 131.6 446C152.4 446 169.2 451.4 182 462.2C195 473 203.2 487.2 206.6 504.8L169.4 514.4C168.2 505.6 164.4 498 158 491.6C151.6 485.2 142.6 482 131 482C125.6 482 120.5 483 115.7 485C110.9 487 106.7 489.9 103.1 493.7C99.5 497.3 96.6 501.8 94.4 507.2C92.4 512.4 91.4 518.3 91.4 524.9V526.7C91.4 533.3 92.4 539.2 94.4 544.4C96.6 549.4 99.5 553.6 103.1 557C106.7 560.4 110.9 563 115.7 564.8C120.5 566.4 125.6 567.2 131 567.2C142.6 567.2 151.4 564.3 157.4 558.5C163.6 552.7 167.6 544.9 169.4 535.1L206.6 544.4ZM535.583 577.4H530.183C528.583 580.8 526.583 584.1 524.183 587.3C521.983 590.3 518.983 593 515.183 595.4C511.583 597.8 507.183 599.7 501.983 601.1C496.983 602.5 490.883 603.2 483.683 603.2C474.483 603.2 465.883 601.6 457.883 598.4C450.083 595 443.183 590.1 437.183 583.7C431.383 577.1 426.783 569.1 423.383 559.7C420.183 550.3 418.583 539.5 418.583 527.3V521.9C418.583 509.9 420.283 499.2 423.683 489.8C427.283 480.4 432.083 472.5 438.083 466.1C444.283 459.5 451.383 454.5 459.383 451.1C467.583 447.7 476.183 446 485.183 446C497.183 446 506.683 448.3 513.683 452.9C520.683 457.3 526.183 463.6 530.183 471.8H535.583V389H573.383V599H535.583V577.4ZM495.983 567.2C507.783 567.2 517.283 563.5 524.483 556.1C531.883 548.5 535.583 538.6 535.583 526.4V522.8C535.583 510.6 531.883 500.8 524.483 493.4C517.283 485.8 507.783 482 495.983 482C484.183 482 474.583 485.7 467.183 493.1C459.983 500.3 456.383 510.2 456.383 522.8V526.4C456.383 539 459.983 549 467.183 556.4C474.583 563.6 484.183 567.2 495.983 567.2ZM645.774 536.9C645.974 541.3 646.974 545.4 648.774 549.2C650.774 552.8 653.374 556 656.574 558.8C659.974 561.4 663.774 563.5 667.974 565.1C672.374 566.5 676.974 567.2 681.774 567.2C691.174 567.2 698.374 565.6 703.374 562.4C708.374 559 711.974 555 714.174 550.4L746.574 568.4C744.774 572.2 742.274 576.2 739.074 580.4C735.874 584.4 731.674 588.1 726.474 591.5C721.474 594.9 715.274 597.7 707.874 599.9C700.674 602.1 692.174 603.2 682.374 603.2C671.174 603.2 660.974 601.4 651.774 597.8C642.574 594.2 634.574 589 627.774 582.2C621.174 575.4 615.974 567.1 612.174 557.3C608.574 547.5 606.774 536.4 606.774 524V522.2C606.774 510.8 608.674 500.4 612.474 491C616.474 481.6 621.874 473.6 628.674 467C635.474 460.4 643.374 455.3 652.374 451.7C661.574 447.9 671.374 446 681.774 446C694.574 446 705.574 448.3 714.774 452.9C723.974 457.3 731.574 463 737.574 470C743.574 476.8 747.974 484.4 750.774 492.8C753.574 501 754.974 509 754.974 516.8V536.9H645.774ZM681.474 480.2C671.874 480.2 664.074 482.7 658.074 487.7C652.074 492.5 648.174 498.1 646.374 504.5H716.574C715.374 497.5 711.574 491.7 705.174 487.1C698.974 482.5 691.074 480.2 681.474 480.2ZM893.066 574.7C893.066 578.7 892.266 582.5 890.666 586.1C889.266 589.5 887.266 592.5 884.666 595.1C882.066 597.5 878.966 599.4 875.366 600.8C871.966 602.4 868.366 603.2 864.566 603.2C860.566 603.2 856.866 602.4 853.466 600.8C850.066 599.4 847.066 597.5 844.466 595.1C841.866 592.5 839.766 589.5 838.166 586.1C836.766 582.5 836.066 578.7 836.066 574.7C836.066 570.7 836.766 567 838.166 563.6C839.766 560 841.866 557 844.466 554.6C847.066 552 850.066 550 853.466 548.6C856.866 547 860.566 546.2 864.566 546.2C868.366 546.2 871.966 547 875.366 548.6C878.966 550 882.066 552 884.666 554.6C887.266 557 889.266 560 890.666 563.6C892.266 567 893.066 570.7 893.066 574.7ZM893.066 474.5C893.066 478.5 892.266 482.3 890.666 485.9C889.266 489.3 887.266 492.3 884.666 494.9C882.066 497.3 878.966 499.3 875.366 500.9C871.966 502.3 868.366 503 864.566 503C860.566 503 856.866 502.3 853.466 500.9C850.066 499.3 847.066 497.3 844.466 494.9C841.866 492.3 839.766 489.3 838.166 485.9C836.766 482.3 836.066 478.5 836.066 474.5C836.066 470.5 836.766 466.8 838.166 463.4C839.766 459.8 841.866 456.8 844.466 454.4C847.066 451.8 850.066 449.8 853.466 448.4C856.866 446.8 860.566 446 864.566 446C868.366 446 871.966 446.8 875.366 448.4C878.966 449.8 882.066 451.8 884.666 454.4C887.266 456.8 889.266 459.8 890.666 463.4C892.266 466.8 893.066 470.5 893.066 474.5ZM1119.36 599H1079.76V536C1079.76 531.2 1078.46 527.3 1075.86 524.3C1073.46 521.3 1069.36 519.8 1063.56 519.8H1017.96V599H978.357V389H1058.76C1069.56 389 1079.06 390.5 1087.26 393.5C1095.46 396.5 1102.26 400.7 1107.66 406.1C1113.26 411.3 1117.46 417.4 1120.26 424.4C1123.26 431.4 1124.76 438.9 1124.76 446.9V454.1C1124.76 462.7 1122.46 470.8 1117.86 478.4C1113.26 485.8 1106.16 491.5 1096.56 495.5V500.9C1103.56 501.7 1109.06 504.4 1113.06 509C1117.26 513.6 1119.36 519.4 1119.36 526.4V599ZM1017.96 482H1055.76C1065.36 482 1072.66 479.8 1077.66 475.4C1082.66 470.8 1085.16 464.4 1085.16 456.2V452.6C1085.16 445.6 1082.66 439.6 1077.66 434.6C1072.66 429.4 1065.36 426.8 1055.76 426.8H1017.96V482ZM1309.35 526.4C1309.35 538.8 1307.25 549.8 1303.05 559.4C1298.85 568.8 1293.15 576.8 1285.95 583.4C1278.75 589.8 1270.45 594.7 1261.05 598.1C1251.85 601.5 1242.15 603.2 1231.95 603.2C1221.75 603.2 1211.95 601.5 1202.55 598.1C1193.35 594.7 1185.15 589.8 1177.95 583.4C1170.75 576.8 1165.05 568.8 1160.85 559.4C1156.65 549.8 1154.55 538.8 1154.55 526.4V522.8C1154.55 510.6 1156.65 499.8 1160.85 490.4C1165.05 480.8 1170.75 472.7 1177.95 466.1C1185.15 459.5 1193.35 454.5 1202.55 451.1C1211.95 447.7 1221.75 446 1231.95 446C1242.15 446 1251.85 447.7 1261.05 451.1C1270.45 454.5 1278.75 459.5 1285.95 466.1C1293.15 472.7 1298.85 480.8 1303.05 490.4C1307.25 499.8 1309.35 510.6 1309.35 522.8V526.4ZM1231.95 567.2C1237.35 567.2 1242.45 566.3 1247.25 564.5C1252.05 562.7 1256.25 560.1 1259.85 556.7C1263.45 553.3 1266.25 549.2 1268.25 544.4C1270.45 539.4 1271.55 533.8 1271.55 527.6V521.6C1271.55 515.4 1270.45 509.9 1268.25 505.1C1266.25 500.1 1263.45 495.9 1259.85 492.5C1256.25 489.1 1252.05 486.5 1247.25 484.7C1242.45 482.9 1237.35 482 1231.95 482C1226.55 482 1221.45 482.9 1216.65 484.7C1211.85 486.5 1207.65 489.1 1204.05 492.5C1200.45 495.9 1197.55 500.1 1195.35 505.1C1193.35 509.9 1192.35 515.4 1192.35 521.6V527.6C1192.35 533.8 1193.35 539.4 1195.35 544.4C1197.55 549.2 1200.45 553.3 1204.05 556.7C1207.65 560.1 1211.85 562.7 1216.65 564.5C1221.45 566.3 1226.55 567.2 1231.95 567.2ZM1385.04 599H1347.24V450.2H1385.04V472.4H1390.44C1393.84 464 1399.34 457.5 1406.94 452.9C1414.54 448.3 1423.44 446 1433.64 446C1440.84 446 1447.54 447.2 1453.74 449.6C1460.14 451.8 1465.74 455.3 1470.54 460.1C1475.34 464.9 1479.04 471 1481.64 478.4C1484.44 485.8 1485.84 494.6 1485.84 504.8V599H1448.04V514.4C1448.04 503.8 1445.44 495.5 1440.24 489.5C1435.24 483.3 1427.94 480.2 1418.34 480.2C1407.14 480.2 1398.74 484 1393.14 491.6C1387.74 499 1385.04 509 1385.04 521.6V599ZM1533.63 563H1584.03V486.2H1537.23V450.2H1621.83V563H1665.03V599H1533.63V563ZM1631.13 406.1C1631.13 410.1 1630.33 413.9 1628.73 417.5C1627.33 420.9 1625.33 423.9 1622.73 426.5C1620.13 428.9 1617.03 430.9 1613.43 432.5C1610.03 433.9 1606.43 434.6 1602.63 434.6C1598.63 434.6 1594.93 433.9 1591.53 432.5C1588.13 430.9 1585.13 428.9 1582.53 426.5C1579.93 423.9 1577.83 420.9 1576.23 417.5C1574.83 413.9 1574.13 410.1 1574.13 406.1C1574.13 402.1 1574.83 398.4 1576.23 395C1577.83 391.4 1579.93 388.4 1582.53 386C1585.13 383.4 1588.13 381.4 1591.53 380C1594.93 378.4 1598.63 377.6 1602.63 377.6C1606.43 377.6 1610.03 378.4 1613.43 380C1617.03 381.4 1620.13 383.4 1622.73 386C1625.33 388.4 1627.33 391.4 1628.73 395C1630.33 398.4 1631.13 402.1 1631.13 406.1ZM1752.42 599H1714.62V450.2H1752.42V472.4H1757.82C1761.22 464 1766.72 457.5 1774.32 452.9C1781.92 448.3 1790.82 446 1801.02 446C1808.22 446 1814.92 447.2 1821.12 449.6C1827.52 451.8 1833.12 455.3 1837.92 460.1C1842.72 464.9 1846.42 471 1849.02 478.4C1851.82 485.8 1853.22 494.6 1853.22 504.8V599H1815.42V514.4C1815.42 503.8 1812.82 495.5 1807.62 489.5C1802.62 483.3 1795.32 480.2 1785.72 480.2C1774.52 480.2 1766.12 484 1760.52 491.6C1755.12 499 1752.42 509 1752.42 521.6V599Z" fill="white"/>
<path fill-rule="evenodd" clip-rule="evenodd" d="M392 468C392 454.745 381.255 444 368 444H256C242.745 444 232 454.745 232 468V580C232 593.255 242.745 604 256 604H368C381.255 604 392 593.255 392 580V468ZM281.062 497.795C285.525 493.332 292.761 493.332 297.224 497.795V497.795C301.687 502.259 301.687 509.495 297.224 513.958L296.244 514.938C291.239 519.943 291.239 528.057 296.244 533.062L297.224 534.042C301.687 538.505 301.687 545.741 297.224 550.204V550.204C292.761 554.668 285.525 554.668 281.062 550.204L271.828 540.971C262.455 531.598 262.455 516.402 271.828 507.029L281.062 497.795ZM342.938 497.795C338.475 493.332 331.239 493.332 326.776 497.795V497.795C322.313 502.259 322.313 509.495 326.776 513.958L327.756 514.938C332.761 519.943 332.761 528.057 327.756 533.062L326.776 534.042C322.313 538.505 322.313 545.741 326.776 550.205V550.205C331.239 554.668 338.475 554.668 342.938 550.205L352.172 540.971C361.545 531.598 361.545 516.402 352.172 507.029L342.938 497.795Z" fill="url(#paint0_linear_2673_126)"/>
</g>
<defs>
<linearGradient id="paint0_linear_2673_126" x1="399.826" y1="430.957" x2="243.712" y2="590.957" gradientUnits="userSpaceOnUse">
<stop offset="0.23" stop-color="#B497F1"/>
<stop offset="0.5" stop-color="#D8CBF8"/>
<stop offset="0.551058" stop-color="#9578D2"/>
<stop offset="1" stop-color="#5125AB"/>
</linearGradient>
<clipPath id="clip0_2673_126">
<rect width="1920" height="1080" fill="white"/>
</clipPath>
</defs>
</svg>
