<svg width="1920" height="1080" viewBox="0 0 1920 1080" fill="none" xmlns="http://www.w3.org/2000/svg">
<path fill-rule="evenodd" clip-rule="evenodd" d="M478.199 680.776L443.523 680.738C443.203 680.738 442.888 680.654 442.61 680.494C442.332 680.334 442.099 680.104 441.936 679.826L411.395 627.263C411.162 626.855 411.212 626.484 411.545 626.151L483.483 553.763C483.782 553.464 484.141 553.314 484.557 553.314H558.806C559.322 553.314 559.622 553.572 559.705 554.088C561.629 566.017 572.709 575.211 583.639 577.347C601.151 580.77 618.077 569.19 620.526 551.365C625.897 512.28 569.536 501.475 559.393 539.985C559.301 540.335 559.076 540.51 558.718 540.51H479.448C478.932 540.51 478.49 540.693 478.124 541.06L404.862 614.309C404.587 614.584 404.354 614.555 404.162 614.222L361.767 540.835C361.559 540.477 361.554 540.123 361.754 539.773L390.809 489.295C407.814 460.191 424.698 431.011 441.462 401.756C442.613 399.751 443.598 399.905 444.982 400.122C445.461 400.196 445.986 400.279 446.583 400.282C460.748 400.332 474.914 400.328 489.079 400.269C489.528 400.269 489.753 400.494 489.753 400.944V448.611C489.753 449.119 489.574 449.552 489.216 449.91L434.516 504.997C434.242 505.28 433.938 505.314 433.605 505.097C399.103 483.012 364.952 529.618 396.505 555.225C413.693 569.178 438.839 559.672 445.097 539.636C447.478 531.999 446.658 524.084 442.636 515.89C442.444 515.498 442.503 515.148 442.811 514.84L502.407 455.244C502.79 454.869 502.978 454.415 502.969 453.882L502.557 400.619C502.549 400.203 502.753 399.999 503.169 400.007L603.837 400.269C604.245 400.278 604.549 400.457 604.749 400.807L621.225 429.612C621.475 430.036 621.354 430.249 620.863 430.249L583.663 430.474C583.272 430.474 582.943 430.611 582.677 430.886L545.877 467.685C545.536 468.019 545.161 468.064 544.753 467.823C532.411 460.27 520.561 460.478 509.202 468.447C490.016 481.926 492.776 511.355 513.499 521.486C541.73 535.276 568.524 505.572 554.321 478.191C554.13 477.816 554.184 477.479 554.484 477.179L587.861 443.814C588.152 443.523 588.502 443.377 588.91 443.377C601.185 443.402 613.397 443.402 625.547 443.377C626.507 443.377 627.21 443.158 628.055 442.894L628.139 442.868C628.235 442.838 628.333 442.808 628.433 442.778C628.716 442.686 628.928 442.769 629.07 443.027L684.906 539.736C685.156 540.16 685.156 540.589 684.906 541.022L641.361 616.27C641.178 616.595 640.899 616.757 640.524 616.757L537.458 616.682C537.025 616.682 536.742 616.478 536.609 616.07C534.785 610.341 532.894 606.31 530.937 603.979C510.801 579.97 471.503 595.235 475.538 627.1C477.22 640.391 485.057 649.289 499.047 653.794C499.513 653.944 499.746 654.265 499.746 654.756V679.776C499.746 680.276 499.497 680.53 498.997 680.538L478.199 680.776ZM527.365 512.03C537.465 512.03 545.653 503.843 545.653 493.743C545.653 483.643 537.465 475.456 527.365 475.456C517.265 475.456 509.078 483.643 509.078 493.743C509.078 503.843 517.265 512.03 527.365 512.03ZM433.592 530.593C433.592 540.692 425.405 548.88 415.305 548.88C405.205 548.88 397.018 540.692 397.018 530.593C397.018 520.493 405.205 512.305 415.305 512.305C425.405 512.305 433.592 520.493 433.592 530.593ZM589.785 565.242C599.871 565.242 608.047 557.066 608.047 546.98C608.047 536.894 599.871 528.717 589.785 528.717C579.699 528.717 571.522 536.894 571.522 546.98C571.522 557.066 579.699 565.242 589.785 565.242ZM524.504 623.253C524.504 633.346 516.322 641.528 506.23 641.528C496.137 641.528 487.955 633.346 487.955 623.253C487.955 613.16 496.137 604.978 506.23 604.978C516.322 604.978 524.504 613.16 524.504 623.253ZM582.927 680.489C561.034 680.781 539.137 680.847 517.235 680.689C515.978 680.681 514.653 680.56 513.263 680.327C512.788 680.243 512.551 679.96 512.551 679.477V654.782C512.551 654.274 512.792 653.949 513.275 653.808C525.342 650.293 533.17 642.499 536.759 630.424C536.876 630.024 537.142 629.824 537.558 629.824H632.768C633.251 629.824 633.371 630.037 633.13 630.461L604.587 679.977C604.362 680.377 604.025 680.589 603.575 680.614C599.292 680.87 594.451 680.731 590.108 680.607H590.107C587.447 680.531 584.972 680.461 582.927 680.489ZM903.519 496.328C898.797 504.148 894.899 517.238 909.589 517.638C910.122 517.655 910.385 517.93 910.376 518.463L910.301 521.835C910.293 522.418 909.993 522.71 909.402 522.71H874.501C874.11 522.71 873.827 522.539 873.652 522.198C871.797 518.651 873.747 518.118 876.01 517.499C876.353 517.405 876.704 517.31 877.049 517.201C883.532 515.177 888.354 506.446 891.102 500.113C902.369 474.106 912.229 451.018 920.682 430.848C922.98 425.369 924.55 419.477 925.391 413.173C925.449 412.756 925.687 412.502 926.103 412.411L935.671 410.35C935.852 410.311 936.04 410.336 936.203 410.421C936.367 410.505 936.497 410.643 936.571 410.812C949.745 441.441 962.915 472.049 976.081 502.636C979.266 510.031 982.626 516.189 991.395 517.763C991.962 517.871 992.232 518.213 992.207 518.787L992.057 521.885C992.032 522.452 991.737 522.735 991.17 522.735L948.4 522.872C947.8 522.872 947.513 522.576 947.538 521.985L947.638 518.687C947.655 518.096 947.959 517.767 948.55 517.701C961.653 516.252 956.469 504.073 953.047 496.878C951.548 493.717 949.187 493.093 945.64 493.08C934.106 493.022 922.568 493.018 911.026 493.068L910.939 493.068L910.632 493.069C907.255 493.076 905.48 493.079 903.519 496.328ZM908.865 483.087C908.84 483.148 908.831 483.214 908.838 483.28C908.845 483.345 908.868 483.408 908.905 483.462C908.942 483.517 908.992 483.561 909.05 483.591C909.109 483.622 909.174 483.637 909.24 483.637L946.864 483.712C946.93 483.711 946.995 483.694 947.053 483.662C947.111 483.63 947.161 483.584 947.197 483.528C947.233 483.473 947.254 483.409 947.259 483.343C947.264 483.277 947.253 483.21 947.226 483.149L928.501 438.018C928.471 437.946 928.42 437.884 928.354 437.84C928.288 437.797 928.212 437.773 928.133 437.773C928.054 437.773 927.977 437.797 927.912 437.84C927.846 437.884 927.795 437.946 927.764 438.018L908.865 483.087ZM1379.16 423.678C1352.63 424.103 1344.79 446.763 1347.44 469.234C1349.5 486.685 1359.64 500.351 1375.58 507.383C1390.57 513.991 1406.6 511.88 1421.32 504.085C1421.85 503.811 1422.28 503.915 1422.62 504.398L1424.37 506.858C1424.65 507.242 1424.67 507.637 1424.43 508.045C1420.39 515.39 1406.73 521.986 1399.18 524.634C1383.12 530.242 1361.63 522.585 1348.82 512.742C1324.16 493.793 1323.7 454.969 1342.53 431.76C1355.79 415.397 1377.13 409.501 1397.81 411.624C1406.55 412.511 1414.49 413.685 1420.94 418.432C1424.02 420.693 1419.71 438.818 1411.45 433.959C1401.11 427.888 1392.27 423.479 1379.16 423.678ZM1207.47 411C1194.03 412.258 1180.57 412.662 1167.1 412.212C1159.93 411.986 1152.85 412.009 1145.78 412.031C1134.12 412.069 1122.49 412.106 1110.59 411.025C1110.26 410.998 1109.94 411.093 1109.67 411.291C1109.41 411.49 1109.24 411.778 1109.18 412.1L1105.05 433.947C1104.93 434.588 1105.19 434.905 1105.85 434.896L1109.3 434.834C1109.8 434.826 1110.16 434.592 1110.39 434.134C1116.5 421.818 1133.41 421.368 1145.1 422.98C1145.55 423.038 1145.88 423.263 1146.1 423.654C1146.77 424.87 1147.11 426.348 1147.11 428.089V502.55C1147.11 514.966 1139.99 516.058 1129.91 517.605C1129.6 517.653 1129.28 517.702 1128.96 517.752C1128.4 517.835 1128.19 518.151 1128.31 518.701L1129.1 522.086C1129.23 522.636 1129.58 522.911 1130.15 522.911L1184.07 522.698C1184.61 522.698 1184.9 522.436 1184.95 521.911L1185.29 518.501C1185.34 518.018 1185.12 517.743 1184.65 517.677C1174.08 516.178 1166.8 515.141 1166.79 502.562C1166.78 477.554 1166.83 452.547 1166.95 427.539C1166.97 421.545 1174.71 422.1 1179.92 422.474L1179.92 422.474L1180.11 422.488C1180.25 422.498 1180.39 422.508 1180.53 422.517C1188.75 422.605 1197.36 424.803 1200.3 433.51C1200.44 433.918 1200.7 434.226 1201.07 434.434C1203.49 435.758 1204.98 434.222 1205.47 431.786C1206.7 425.574 1208.31 419.436 1210.31 413.374C1210.4 413.093 1210.35 412.74 1210.16 412.367C1209.97 411.994 1209.66 411.62 1209.26 411.3C1208.91 411.025 1208.31 410.925 1207.47 411ZM1243.8 522.461C1236.04 522.211 1228.23 522.477 1220.36 523.26C1219.87 523.31 1219.58 523.089 1219.5 522.598L1218.87 518.851C1218.77 518.234 1219.02 517.847 1219.62 517.689C1231.19 514.529 1236.55 511.793 1236.2 498.152C1235.77 481.564 1235.72 464.975 1236.06 448.387C1236.1 447.484 1236.16 446.55 1236.21 445.594C1236.83 434.307 1237.63 419.983 1222.77 417.795C1222.25 417.72 1222.01 417.416 1222.07 416.883L1222.51 412.999C1222.57 412.424 1222.88 412.153 1223.46 412.187C1246.99 413.336 1273.18 413.236 1302.02 411.887C1304.9 411.754 1306.02 413.303 1305.39 416.534C1304.32 421.988 1302.96 427.547 1301.33 433.21C1301.22 433.594 1301.01 433.946 1300.73 434.234C1300.45 434.521 1300.1 434.736 1299.72 434.859C1298.07 435.383 1296.98 434.546 1296.4 432.972C1293.93 426.252 1288.96 422.505 1281.47 421.73C1281.07 421.689 1280.64 421.642 1280.19 421.593C1271.86 420.69 1254.98 418.86 1254.85 430.824C1254.84 432.078 1254.77 433.844 1254.69 435.908L1254.69 435.913C1254.38 444.397 1253.87 457.93 1256.14 461.827C1256.34 462.194 1256.66 462.394 1257.09 462.427C1270.88 463.714 1284.7 462.489 1295.47 454.882C1295.65 454.753 1295.86 454.672 1296.08 454.647C1296.31 454.622 1296.53 454.654 1296.74 454.74C1296.94 454.826 1297.12 454.964 1297.26 455.139C1297.4 455.315 1297.5 455.523 1297.53 455.744C1297.99 458.476 1292.21 469.951 1289.4 475.521C1288.93 476.447 1288.55 477.209 1288.29 477.741C1286.57 481.25 1283.82 478.595 1281.47 476.324C1280.53 475.409 1279.65 474.556 1278.92 474.194C1275.2 472.333 1255.29 466.112 1255.07 474.694C1254.82 484.379 1254.78 494.064 1254.97 503.748C1255.17 514.279 1267.75 514.953 1275.46 514.279C1288.5 513.154 1300.23 509.644 1308.18 498.59C1310.16 495.804 1314.5 496.391 1314.06 500.201C1312.88 510.681 1307.1 523.635 1294.66 522.885C1277.76 521.878 1260.81 521.736 1243.8 522.461ZM794.324 412.121C793.672 412.119 793.016 412.116 792.358 412.112C791.221 412.154 790.092 412.198 788.969 412.241L788.959 412.242L788.955 412.242L788.954 412.242C776.866 412.708 765.504 413.146 753.347 411.912C751.415 411.712 750.203 412.941 749.712 415.597C749.454 416.988 750.016 417.8 751.398 418.033C759.609 419.457 763.711 424.782 763.702 434.009C763.694 457.618 763.653 481.223 763.578 504.823C763.542 513.562 758.257 515.307 751.334 517.592L751.333 517.592C751.013 517.698 750.689 517.805 750.362 517.914C749.945 518.056 749.766 518.347 749.825 518.788L750.249 521.974C750.316 522.465 750.599 522.711 751.099 522.711H799.403C799.927 522.711 800.223 522.448 800.29 521.924L800.739 518.539C800.798 518.064 800.594 517.789 800.127 517.714C789.185 516.028 782.827 514.641 782.702 501.813C782.61 492.419 782.619 483.034 782.727 473.657C782.735 473.241 782.948 473.016 783.364 472.983C799.439 471.659 804.99 478.768 814.695 491.199L814.697 491.202C815.247 491.907 815.811 492.63 816.391 493.368C821.138 499.414 825.914 505.439 830.719 511.443C838.588 521.299 845.596 525.846 858.062 525.321L865.57 523.648C866.144 523.514 866.461 523.156 866.519 522.573L866.731 520.337C866.781 519.838 866.561 519.538 866.069 519.438C860.915 518.414 856.347 515.424 852.366 510.469C843.597 499.568 834.774 488.713 825.897 477.904C822.2 473.416 817.957 470.888 813.168 470.322C811.278 470.105 811.27 469.818 813.143 469.46C824.573 467.274 834.191 461.64 837.926 450.386C841.586 439.381 838.251 426.077 828.47 419.42C817.899 412.218 806.664 412.172 794.324 412.121ZM782.688 436.144V436.143V436.142L782.688 436.114C782.701 433.779 782.714 431.446 782.727 429.113C782.764 421.331 792.283 420.019 797.966 420.731C810.683 422.313 817.79 429.729 819.289 442.978C821.9 466.187 798.641 466.025 783.214 465.125C782.798 465.1 782.589 464.876 782.589 464.451C782.579 455.017 782.633 445.575 782.688 436.144V436.144V436.144ZM1036.28 504.198C1036.29 519.226 1065.17 513.854 1072.54 511.206C1079.73 508.616 1085.57 504.24 1090.06 498.078C1090.83 497.028 1091.88 496.604 1093.21 496.804C1093.87 496.903 1094.46 497.245 1094.87 497.762C1095.29 498.279 1095.49 498.931 1095.44 499.589C1094.7 509.345 1088.59 523.51 1076.64 522.911C1051.62 521.653 1026.61 521.703 1001.61 523.06C1001.08 523.094 1000.78 522.844 1000.71 522.311L1000.28 518.663C1000.21 518.089 1000.46 517.731 1001.01 517.589C1009.83 515.316 1017.15 512.668 1017.18 502.724C1017.21 479.507 1017.21 456.29 1017.19 433.073C1017.18 423.921 1012.83 418.866 1004.15 417.908C1003.57 417.841 1003.3 417.517 1003.36 416.934L1003.75 413.324C1003.82 412.757 1004.13 412.474 1004.7 412.474H1048.23C1048.88 412.474 1049.23 412.795 1049.27 413.436L1049.5 417.034C1049.53 417.517 1049.3 417.791 1048.83 417.858C1035.87 419.615 1035.97 427.853 1036.11 438.934C1036.12 439.907 1036.13 440.902 1036.14 441.916C1036.22 462.685 1036.27 483.446 1036.28 504.198ZM1480.33 463.839C1477.53 463.939 1475.25 463.56 1473.51 462.702C1472.93 462.414 1472.44 461.968 1472.09 461.416C1471.75 460.864 1471.57 460.227 1471.58 459.58C1471.58 451.452 1471.58 443.378 1471.56 435.359C1471.55 425.391 1473.7 418.745 1484.5 417.996C1485.07 417.954 1485.32 417.654 1485.24 417.096L1484.68 413.262C1484.6 412.729 1484.3 412.462 1483.75 412.462C1470.09 412.495 1456.39 412.495 1442.67 412.462C1439.22 412.45 1438.16 414.323 1439.31 417.471C1439.44 417.821 1439.7 418.017 1440.07 418.058C1448 418.908 1452.14 423.284 1452.49 431.187C1453.26 448.355 1453 465.246 1452.75 482.038C1452.66 488.082 1452.57 494.113 1452.53 500.139C1452.45 510.644 1451.2 515.578 1439.75 517.627C1439.26 517.719 1439.02 518.01 1439.05 518.501L1439.22 521.862C1439.25 522.428 1439.54 522.711 1440.11 522.711H1483.94C1484.47 522.711 1484.76 522.445 1484.8 521.912L1485.08 518.701C1485.13 518.118 1484.86 517.789 1484.27 517.714C1475.92 516.715 1471.72 511.927 1471.65 503.349C1471.58 494.53 1471.56 485.682 1471.58 476.805C1471.58 476.09 1471.84 475.401 1472.32 474.867C1472.8 474.334 1473.45 473.992 1474.16 473.907C1483.29 472.825 1493.04 473.007 1502.6 473.185C1506.95 473.266 1511.25 473.347 1515.44 473.308C1516.46 473.298 1517.51 473.188 1518.54 473.081C1522.81 472.634 1526.71 472.225 1526.51 479.204C1526.31 485.982 1526.2 492.773 1526.16 499.577C1526.12 509.645 1525.19 515.503 1514.56 517.39C1513.26 517.623 1512.65 518.393 1512.73 519.701L1512.9 522.049C1512.92 522.49 1513.15 522.711 1513.6 522.711H1557.38C1557.99 522.711 1558.34 522.403 1558.42 521.787L1558.78 518.514C1558.84 517.981 1558.61 517.698 1558.07 517.665C1546.84 517.015 1545.11 509.045 1545.05 499.589C1544.91 477.297 1544.92 454.987 1545.09 432.661C1545.15 424.029 1549.17 418.645 1558.08 417.896C1558.68 417.846 1558.93 417.521 1558.83 416.922L1558.22 413.137C1558.14 412.695 1557.88 412.475 1557.44 412.475H1513.92C1513.42 412.475 1513.13 412.724 1513.05 413.224L1512.45 417.084C1512.36 417.617 1512.59 417.904 1513.12 417.946C1524.95 418.933 1526.12 426.315 1526.26 436.92C1526.36 443.741 1526.47 450.561 1526.59 457.381C1526.71 464.351 1521.78 464.589 1516.12 463.927C1506.31 462.766 1495.88 463.201 1485.83 463.62C1483.98 463.697 1482.15 463.773 1480.33 463.839ZM770.217 650.934C770.461 655.639 771.042 666.823 764.077 664.411C760.025 663.014 760.52 655.562 760.91 649.701L760.927 649.441C760.935 649.321 760.943 649.202 760.95 649.083C760.964 648.869 760.978 648.657 760.991 648.448C761.025 647.898 760.766 647.623 760.217 647.623L750.286 647.611C749.928 647.611 749.753 647.79 749.762 648.148C749.773 649.229 749.771 650.304 749.77 651.368C749.756 659.532 749.744 667.042 755.745 671.794C766.238 680.088 780.365 673.031 781.09 659.802C781.206 657.529 781.194 652.882 781.052 645.862C781.044 645.445 780.919 645.071 780.678 644.738C774.707 636.527 768.74 628.311 762.777 620.092C761.645 618.526 761.012 616.89 760.879 615.183C760.641 612.198 760.142 603.529 764.002 602.692C771.111 601.144 770.552 610.688 770.227 616.239L770.227 616.24C770.177 617.096 770.132 617.857 770.122 618.468C770.114 618.96 770.356 619.205 770.847 619.205H780.465C780.973 619.205 781.223 618.951 781.215 618.443C781.184 617.207 781.185 615.949 781.185 614.684C781.189 606.613 781.192 598.244 773.158 593.46C769.952 591.553 766.458 591 762.678 591.799C749.116 594.678 749.519 607.673 749.86 618.69L749.86 618.709V618.71C749.883 619.447 749.906 620.176 749.924 620.892C749.932 621.283 750.053 621.637 750.286 621.953L769.723 648.385C769.997 648.76 770.143 649.185 770.16 649.659C770.168 649.991 770.191 650.425 770.217 650.934ZM1235.18 674.593V664.625C1235.18 664.605 1235.18 664.586 1235.17 664.566C1235.17 664.519 1235.16 664.473 1235.14 664.429C1235.11 664.367 1235.07 664.31 1235.03 664.263C1234.98 664.215 1234.92 664.177 1234.86 664.152C1234.8 664.126 1234.73 664.113 1234.66 664.113L1219.76 664.288C1219.63 664.288 1219.5 664.234 1219.4 664.138C1219.3 664.042 1219.25 663.911 1219.25 663.776L1219.26 593.174C1219.26 593.107 1219.25 593.04 1219.22 592.978C1219.2 592.916 1219.16 592.86 1219.11 592.812C1219.06 592.765 1219.01 592.727 1218.95 592.701C1218.88 592.675 1218.82 592.662 1218.75 592.662H1209.14C1209.08 592.662 1209.01 592.675 1208.95 592.701C1208.89 592.727 1208.83 592.765 1208.78 592.812C1208.73 592.86 1208.7 592.916 1208.67 592.978C1208.65 593.04 1208.63 593.107 1208.63 593.174V674.593C1208.63 674.729 1208.69 674.859 1208.78 674.955C1208.88 675.051 1209.01 675.105 1209.14 675.105H1234.66C1234.8 675.105 1234.93 675.051 1235.03 674.955C1235.12 674.859 1235.18 674.729 1235.18 674.593ZM944.215 674.955L933.859 674.793C933.393 674.785 933.16 674.543 933.16 674.068L933.247 662.302L933.31 593.537C933.31 593.162 933.497 592.974 933.872 592.974H943.503C943.919 592.974 944.127 593.183 944.127 593.599V620.455C944.127 620.872 944.335 621.08 944.752 621.08H953.346C953.662 621.08 953.82 620.922 953.82 620.605L953.958 593.674C953.958 593.208 954.195 592.974 954.67 592.974H964.113C964.53 592.974 964.738 593.183 964.738 593.599V674.168C964.738 674.585 964.53 674.793 964.113 674.793H954.545C954.195 674.793 954.02 674.622 954.02 674.281L953.933 632.385C953.933 631.927 953.704 631.698 953.246 631.698H944.814C944.398 631.698 944.19 631.906 944.19 632.322L944.215 674.955ZM1052.27 670.148C1055.03 667.358 1056.57 663.584 1056.55 659.659L1056.28 607.97C1056.27 606.026 1055.87 604.103 1055.12 602.311C1054.37 600.519 1053.27 598.893 1051.89 597.526C1050.51 596.159 1048.87 595.077 1047.07 594.343C1045.27 593.608 1043.34 593.235 1041.4 593.245L1040.2 593.252C1036.27 593.272 1032.52 594.852 1029.75 597.642C1026.99 600.432 1025.45 604.206 1025.47 608.131L1025.74 659.82C1025.75 661.764 1026.15 663.687 1026.9 665.479C1027.65 667.271 1028.75 668.897 1030.13 670.264C1031.52 671.631 1033.15 672.713 1034.95 673.447C1036.75 674.182 1038.68 674.555 1040.62 674.545L1041.82 674.538C1045.75 674.518 1049.51 672.938 1052.27 670.148ZM1044.15 605.364C1044.88 606.1 1045.3 607.098 1045.3 608.138V659.852C1045.3 660.892 1044.88 661.89 1044.15 662.626C1043.41 663.361 1042.41 663.774 1041.37 663.774H1040.67C1039.63 663.774 1038.64 663.361 1037.9 662.626C1037.16 661.89 1036.75 660.892 1036.75 659.852V608.138C1036.75 607.098 1037.16 606.1 1037.9 605.364C1038.64 604.629 1039.63 604.215 1040.67 604.215H1041.37C1042.41 604.215 1043.41 604.629 1044.15 605.364ZM1147.65 659.978C1147.65 663.854 1146.11 667.571 1143.37 670.312C1140.63 673.053 1136.91 674.593 1133.03 674.593H1131.91C1128.03 674.593 1124.32 673.053 1121.58 670.312C1118.83 667.571 1117.3 663.854 1117.3 659.978V607.814C1117.3 603.938 1118.83 600.22 1121.58 597.479C1124.32 594.739 1128.03 593.199 1131.91 593.199H1133.03C1136.91 593.199 1140.63 594.739 1143.37 597.479C1146.11 600.22 1147.65 603.938 1147.65 607.814V659.978ZM1137.11 608.276C1137.11 607.189 1136.67 606.147 1135.91 605.379C1135.14 604.61 1134.1 604.179 1133.01 604.179H1132.16C1131.07 604.179 1130.03 604.61 1129.26 605.379C1128.49 606.147 1128.06 607.189 1128.06 608.276V659.69C1128.06 660.777 1128.49 661.819 1129.26 662.588C1130.03 663.356 1131.07 663.788 1132.16 663.788H1133.01C1134.1 663.788 1135.14 663.356 1135.91 662.588C1136.67 661.819 1137.11 660.777 1137.11 659.69V608.276ZM852.966 607.727C852.99 606.967 853.313 606.248 853.865 605.728C856.089 603.638 858.187 603.484 860.161 605.266C862.001 606.938 861.856 609.356 861.717 611.668C861.701 611.93 861.685 612.191 861.672 612.449C861.647 612.84 861.831 613.032 862.222 613.023L871.99 612.936C872.348 612.928 872.54 612.744 872.565 612.386C874.014 587.928 841.974 587.778 841.986 609.213L842.011 653.895C842.011 662.339 842.786 668.947 850.43 672.645C855.11 674.901 859.724 674.872 864.271 672.557C871.628 668.81 872.915 660.765 872.615 652.608C872.598 652.217 872.394 652.017 872.003 652.009L862.447 651.959C861.972 651.959 861.727 652.192 861.71 652.658C861.689 653.242 861.71 653.944 861.733 654.707C861.845 658.386 862.001 663.508 857.625 663.901C853.828 664.25 852.991 660.965 852.904 657.73C852.454 641.1 852.475 624.432 852.966 607.727Z" fill="url(#paint0_linear_1572_331)"/>
<defs>
<linearGradient id="paint0_linear_1572_331" x1="960.228" y1="400" x2="960.228" y2="680.776" gradientUnits="userSpaceOnUse">
<stop stop-color="#FEF9D0"/>
<stop offset="0.661458" stop-color="#DDA323"/>
<stop offset="0.932292" stop-color="#EBB844"/>
<stop offset="1" stop-color="#FDED97" stop-opacity="0.82"/>
</linearGradient>
</defs>
</svg>
