<svg width="165" height="76" viewBox="0 0 165 76" fill="none" xmlns="http://www.w3.org/2000/svg">
    <rect width="53.1076" height="53.1076" rx="8" transform="matrix(0.707107 0.707107 0.707107 -0.707107 0 37.5527)"
          fill="url(#paint0_linear_258_33)"/>
    <path d="M92.324 52.273C90.322 52.273 88.528 51.948 86.942 51.298C85.356 50.648 84.082 49.686 83.12 48.412C82.184 47.138 81.69 45.604 81.638 43.81H88.736C88.84 44.824 89.191 45.604 89.789 46.15C90.387 46.67 91.167 46.93 92.129 46.93C93.117 46.93 93.897 46.709 94.469 46.267C95.041 45.799 95.327 45.162 95.327 44.356C95.327 43.68 95.093 43.121 94.625 42.679C94.183 42.237 93.624 41.873 92.948 41.587C92.298 41.301 91.362 40.976 90.14 40.612C88.372 40.066 86.929 39.52 85.811 38.974C84.693 38.428 83.731 37.622 82.925 36.556C82.119 35.49 81.716 34.099 81.716 32.383C81.716 29.835 82.639 27.846 84.485 26.416C86.331 24.96 88.736 24.232 91.7 24.232C94.716 24.232 97.147 24.96 98.993 26.416C100.839 27.846 101.827 29.848 101.957 32.422H94.742C94.69 31.538 94.365 30.849 93.767 30.355C93.169 29.835 92.402 29.575 91.466 29.575C90.66 29.575 90.01 29.796 89.516 30.238C89.022 30.654 88.775 31.265 88.775 32.071C88.775 32.955 89.191 33.644 90.023 34.138C90.855 34.632 92.155 35.165 93.923 35.737C95.691 36.335 97.121 36.907 98.213 37.453C99.331 37.999 100.293 38.792 101.099 39.832C101.905 40.872 102.308 42.211 102.308 43.849C102.308 45.409 101.905 46.826 101.099 48.1C100.319 49.374 99.175 50.388 97.667 51.142C96.159 51.896 94.378 52.273 92.324 52.273ZM127.277 33.436C127.277 35.022 126.913 36.478 126.185 37.804C125.457 39.104 124.339 40.157 122.831 40.963C121.323 41.769 119.451 42.172 117.215 42.172H113.081V52H106.412V24.622H117.215C119.399 24.622 121.245 24.999 122.753 25.753C124.261 26.507 125.392 27.547 126.146 28.873C126.9 30.199 127.277 31.72 127.277 33.436ZM116.708 36.868C117.982 36.868 118.931 36.569 119.555 35.971C120.179 35.373 120.491 34.528 120.491 33.436C120.491 32.344 120.179 31.499 119.555 30.901C118.931 30.303 117.982 30.004 116.708 30.004H113.081V36.868H116.708ZM161.754 24.622V52H155.085V35.581L148.962 52H143.58L137.418 35.542V52H130.749V24.622H138.627L146.31 43.576L153.915 24.622H161.754Z"
          fill="black"/>
    <defs>
        <linearGradient id="paint0_linear_258_33" x1="26.5538" y1="0" x2="26.5538" y2="53.1076"
                        gradientUnits="userSpaceOnUse">
            <stop stop-color="#46D0EB"/>
            <stop offset="1" stop-color="#6DFCA1"/>
        </linearGradient>
    </defs>
</svg>
