<svg width="1552" height="874" viewBox="0 0 1552 874" fill="none" xmlns="http://www.w3.org/2000/svg">
<path d="M430.488 428.952C430.488 418.672 428.112 409.42 424.548 401.196L368.712 275.78H280.8L378.216 496.8C409.104 486.52 430.488 459.792 430.488 428.952Z" fill="url(#paint0_linear_2669_107)"/>
<path d="M542.159 275.78L325.943 763.052H413.855L630.071 275.78H542.159Z" fill="url(#paint1_linear_2669_107)"/>
<path d="M697.85 512.5V334H789.14C812.6 334 830.11 338.335 841.67 347.005C853.23 355.505 859.01 366.725 859.01 380.665C859.01 389.845 856.545 397.92 851.615 404.89C846.855 411.69 840.055 417.13 831.215 421.21C822.545 425.12 812.175 427.075 800.105 427.075L805.205 414.835C817.785 414.835 828.75 416.79 838.1 420.7C847.45 424.44 854.675 429.965 859.775 437.275C865.045 444.415 867.68 453.17 867.68 463.54C867.68 479.01 861.39 491.08 848.81 499.75C836.4 508.25 818.21 512.5 794.24 512.5H697.85ZM747.83 476.035H790.16C798.83 476.035 805.375 474.59 809.795 471.7C814.385 468.64 816.68 464.05 816.68 457.93C816.68 451.81 814.385 447.305 809.795 444.415C805.375 441.355 798.83 439.825 790.16 439.825H744.26V404.89H782.51C791.01 404.89 797.385 403.445 801.635 400.555C805.885 397.665 808.01 393.33 808.01 387.55C808.01 381.77 805.885 377.52 801.635 374.8C797.385 371.91 791.01 370.465 782.51 370.465H747.83V476.035ZM960.896 514.795C945.766 514.795 932.336 511.735 920.606 505.615C908.876 499.495 899.611 491.08 892.811 480.37C886.181 469.49 882.866 457.08 882.866 443.14C882.866 429.2 886.181 416.875 892.811 406.165C899.611 395.455 908.876 387.125 920.606 381.175C932.336 375.055 945.766 371.995 960.896 371.995C976.026 371.995 989.456 375.055 1001.19 381.175C1013.09 387.125 1022.35 395.455 1028.98 406.165C1035.61 416.875 1038.93 429.2 1038.93 443.14C1038.93 457.08 1035.61 469.49 1028.98 480.37C1022.35 491.08 1013.09 499.495 1001.19 505.615C989.456 511.735 976.026 514.795 960.896 514.795ZM960.896 476.29C966.506 476.29 971.436 475.015 975.686 472.465C980.106 469.915 983.591 466.175 986.141 461.245C988.691 456.145 989.966 450.11 989.966 443.14C989.966 436.17 988.691 430.305 986.141 425.545C983.591 420.615 980.106 416.875 975.686 414.325C971.436 411.775 966.506 410.5 960.896 410.5C955.456 410.5 950.526 411.775 946.106 414.325C941.856 416.875 938.371 420.615 935.651 425.545C933.101 430.305 931.826 436.17 931.826 443.14C931.826 450.11 933.101 456.145 935.651 461.245C938.371 466.175 941.856 469.915 946.106 472.465C950.526 475.015 955.456 476.29 960.896 476.29ZM1130.73 514.795C1115.6 514.795 1102.17 511.735 1090.44 505.615C1078.71 499.495 1069.45 491.08 1062.65 480.37C1056.02 469.49 1052.7 457.08 1052.7 443.14C1052.7 429.2 1056.02 416.875 1062.65 406.165C1069.45 395.455 1078.71 387.125 1090.44 381.175C1102.17 375.055 1115.6 371.995 1130.73 371.995C1145.86 371.995 1159.29 375.055 1171.02 381.175C1182.92 387.125 1192.19 395.455 1198.82 406.165C1205.45 416.875 1208.76 429.2 1208.76 443.14C1208.76 457.08 1205.45 469.49 1198.82 480.37C1192.19 491.08 1182.92 499.495 1171.02 505.615C1159.29 511.735 1145.86 514.795 1130.73 514.795ZM1130.73 476.29C1136.34 476.29 1141.27 475.015 1145.52 472.465C1149.94 469.915 1153.43 466.175 1155.98 461.245C1158.53 456.145 1159.8 450.11 1159.8 443.14C1159.8 436.17 1158.53 430.305 1155.98 425.545C1153.43 420.615 1149.94 416.875 1145.52 414.325C1141.27 411.775 1136.34 410.5 1130.73 410.5C1125.29 410.5 1120.36 411.775 1115.94 414.325C1111.69 416.875 1108.21 420.615 1105.49 425.545C1102.94 430.305 1101.66 436.17 1101.66 443.14C1101.66 450.11 1102.94 456.145 1105.49 461.245C1108.21 466.175 1111.69 469.915 1115.94 472.465C1120.36 475.015 1125.29 476.29 1130.73 476.29ZM1271.49 487L1272.77 429.115L1329.12 374.29H1386.5L1324.02 438.805L1299.29 458.695L1271.49 487ZM1231.2 512.5V323.29H1279.65V512.5H1231.2ZM1332.69 512.5L1290.36 459.46L1320.45 422.23L1391.34 512.5H1332.69Z" fill="white"/>
<defs>
<linearGradient id="paint0_linear_2669_107" x1="283.346" y1="278.111" x2="337.622" y2="453.536" gradientUnits="userSpaceOnUse">
<stop stop-color="#23B2A4"/>
<stop offset="1" stop-color="#0D403B"/>
</linearGradient>
<linearGradient id="paint1_linear_2669_107" x1="331.116" y1="280.92" x2="458.977" y2="661.765" gradientUnits="userSpaceOnUse">
<stop stop-color="#23B2A4"/>
<stop offset="1" stop-color="#0D403B"/>
</linearGradient>
</defs>
</svg>
