<svg width="107" height="94" viewBox="0 0 107 94" fill="none" xmlns="http://www.w3.org/2000/svg">
    <path id="Vector"
          d="M14.0232 7.3519C14.0232 3.7067 11.0782 0.761719 7.43301 0.761719C3.78782 0.761719 0.842834 3.7067 0.842834 7.3519V76.5488C0.842834 85.6515 8.2156 93.0242 17.3183 93.0242H99.6955C103.341 93.0242 106.286 90.0792 106.286 86.434C106.286 82.7888 103.341 79.8439 99.6955 79.8439H17.3183C15.506 79.8439 14.0232 78.3611 14.0232 76.5488V7.3519ZM97.7596 25.1866C100.334 22.6123 100.334 18.4316 97.7596 15.8573C95.1854 13.2831 91.0047 13.2831 88.4304 15.8573L66.7446 37.5637L54.9235 25.7426C52.3492 23.1683 48.1686 23.1683 45.5943 25.7426L22.5286 48.8082C19.9544 51.3825 19.9544 55.5632 22.5286 58.1375C25.1029 60.7117 29.2836 60.7117 31.8579 58.1375L50.2692 39.7467L62.0903 51.5679C64.6646 54.1422 68.8452 54.1422 71.4195 51.5679L97.7802 25.2072L97.7596 25.1866Z"
          fill="#9F40BF"/>
</svg>
